# xmcd
#
# Track frame offsets:
#	150
#	14188
#	30711
#	43991
#	61401
#	72209
#	88769
#	101429
#	117744
#	132959
#	148059
#	162842
#	179657
#	194572
#	211497
#	225047
#	241252
#	259212
#	274282
#	289185
#	304633
#
# Disc length: 4302 seconds
#
# Revision: 1
# Processed by: cddbd v1.5.2PL0 Copyright (c) Steve Scherf et al.
# Submitted via: audiograbber 1.83.01
#
DISCID=4610cc15
DTITLE=Various Artist - Halland's Country Hits
DYEAR=1900
DGENRE=
TTITLE0=Mark Chesnutt - Bubba Shot The Jukebox
TTITLE1=Mark Chesnutt - I'll Think Of Something
TTITLE2=Mark Chesnutt - It Sure Is Monday
TTITLE3=Mark Chesnutt - Ol' Country
TTITLE4=Mark Chesnutt - Old Flames Have New Names
TTITLE5=Mark Chesnutt - Too Cold At Home
TTITLE6=Mark Chesnutt - Your Love Is A Miracle
TTITLE7=Mark Collie - Even The Man In The Moon Is Cryin'
TTITLE8=Confederate Railroad - Jesus And Mama
TTITLE9=Confederate Railroad - Queen Of Memphis
TTITLE10=Confederate Railroad - Trashy Women
TTITLE11=Confederate Railroad - When You Leave That Way...Go Back
TTITLE12=Earl Thomas Conley With Keith Whitley - Brotherly Love
TTITLE13=Earl Thomas Conley - Love Out Loud
TTITLE14=Earl Thomas Conley - Shadow Of A Doubt
TTITLE15=Earl Thomas Conley - We Believe In Happy Endings
TTITLE16=Earl Thomas Conley - What She Is
TTITLE17=Corbin-Hanner - I Will Stand By You
TTITLE18=Rob Crosby - She's A Natural
TTITLE19=Billy Ray Cyrus - Achy Breaky Heart
TTITLE20=Billy Ray Cyrus - In The Heart Of A Woman
EXTD=
EXTT0=
EXTT1=
EXTT2=
EXTT3=
EXTT4=
EXTT5=
EXTT6=
EXTT7=
EXTT8=
EXTT9=
EXTT10=
EXTT11=
EXTT12=
EXTT13=
EXTT14=
EXTT15=
EXTT16=
EXTT17=
EXTT18=
EXTT19=
EXTT20=
PLAYORDER=
